# xmcd
#
# Track frame offsets:
#	180
#	12490
#	23263
#	39388
#	53665
#	66917
#	80891
#	90265
#	103500
#	113437
#	131589
#	144411
#	151559
#	164295
#	180119
#	194370
#	204345
#	217923
#	225048
#	236443
#	250623
#	263593
#	272891
#	285592
#
# Disc length: 3966 seconds
#
# Revision: 0
# Processed by: cddbd v1.4PL0 Copyright (c) Steve Scherf et al.
# Submitted via: audiograbber 1.81.02
#
DISCID=200f7c18
DTITLE=Jeff Menten and Dale Blatter - Snowy River
DYEAR=1900
DGENRE=Country
TTITLE0=Pan Handle Rag
TTITLE1=Maiden's Prayer
TTITLE2=Last Date
TTITLE3=Old Joe Clark
TTITLE4=San Antonio Rose
TTITLE5=I Love You Because
TTITLE6=I'm So Lonesome I Could Cry
TTITLE7=Whispering
TTITLE8=Back Home In Indiana
TTITLE9=Somewhere My Love
TTITLE10=Danny Boy
TTITLE11=Scandinavian Polka
TTITLE12=Remington Ride
TTITLE13=Alley Cat (Swing Medley)
TTITLE14=September Song
TTITLE15=Mr. Sandman
TTITLE16=Blue Hawaii
TTITLE17=Red Wing
TTITLE18=Forest Flower
TTITLE19=Westphalia Waltz
TTITLE20=Evening Fire On Lake Trillium
TTITLE21=Spanish Two-Step
TTITLE22=Ashokan Farewell
TTITLE23=Orange Blossom Special
EXTD=
EXTT0=
EXTT1=
EXTT2=
EXTT3=
EXTT4=
EXTT5=
EXTT6=
EXTT7=
EXTT8=
EXTT9=
EXTT10=
EXTT11=
EXTT12=
EXTT13=
EXTT14=
EXTT15=
EXTT16=
EXTT17=
EXTT18=
EXTT19=
EXTT20=
EXTT21=
EXTT22=
EXTT23=
PLAYORDER=
